<svg xmlns="http://www.w3.org/2000/svg" enable-background="new 0 0 24 24" viewBox="0 0 24 24" id="logout"><g><path d="M19.924,12.377c0.0071-0.0207,0.0173-0.0398,0.0242-0.0605c0.0693-0.2056,0.0693-0.4272,0-0.6328
		c-0.0069-0.0208-0.0172-0.0399-0.0242-0.0605c-0.0029-0.0072-0.0054-0.0141-0.0085-0.0212
		c-0.7417-2.1364-2.4523-3.8348-4.5991-4.5506c-0.5273-0.1763-1.0898,0.1084-1.2646,0.6328
		c-0.1748,0.5239,0.1084,1.0898,0.6318,1.2646c1.1105,0.3699,2.0615,1.1011,2.7122,2.0513H10c-0.5527,0-1,0.4478-1,1s0.4473,1,1,1
		h7.3958c-0.6508,0.9501-1.6017,1.6813-2.7122,2.0513c-0.5234,0.1748-0.8066,0.7407-0.6318,1.2646
		c0.1396,0.4194,0.5293,0.6846,0.9482,0.6846c0.1045,0,0.2109-0.0166,0.3164-0.0518c2.1468-0.7158,3.8574-2.4142,4.5991-4.5506
		C19.9186,12.3911,19.9211,12.3842,19.924,12.377z"></path><path d="M4.6748,17.9336c0.4463,1.9297,1.9238,3.3906,3.7627,3.7222l0.3271,0.0591c1.0566,0.1909,2.1191,0.2861,3.1826,0.2861
		s2.127-0.0952,3.1826-0.2856c1.3096-0.2363,2.4678-1.0581,3.1768-2.2544c0.2813-0.4751,0.125-1.0884-0.3506-1.3701
		s-1.0889-0.124-1.3701,0.3506c-0.4131,0.6963-1.0732,1.1724-1.8115,1.3057c-1.875,0.3379-3.7783,0.3379-5.6533,0l-0.3271-0.0596
		c-1.0527-0.1895-1.9043-1.0547-2.1699-2.2041c-0.8291-3.5874-0.8291-7.3794,0-10.9668C6.8896,5.3672,7.7412,4.502,8.7949,4.312
		l0.3252-0.0591c1.875-0.3379,3.7793-0.3379,5.6543,0c0.6768,0.1226,1.2803,0.5234,1.6982,1.1299
		c0.3145,0.4541,0.9365,0.5669,1.3916,0.2544c0.4541-0.314,0.5684-0.9365,0.2549-1.3911c-0.7236-1.0474-1.7852-1.7437-2.9893-1.9609
		c-2.1113-0.3818-4.2529-0.3809-6.3662,0L8.4385,2.3438c-1.8398,0.332-3.3174,1.793-3.7637,3.7227
		C3.7783,9.9482,3.7783,14.0518,4.6748,17.9336z"></path></g></svg>